PathFileType	4	(X/Y/Z)	C:/Users/opensim2020/Desktop/walking_exp_matlab/subject06_walking14_straight_04.trc																																																																																																																																					
DataRate	CameraRate	NumFrames	NumMarkers	Units	OrigDataRate	OrigDataStartFrame	OrigNumFrames																																																																																																																																	
100	100	4	45	mm	100	3115	227																																																																																																																																	
Frame#	Time	LFHD			RFHD			LBHD			RBHD			C7			T10			CLAV			STRN			RBAK			LSHO			LUPA			LELB			LFRM			LWRA			LWRB			LFIN			RSHO			RUPA			RELB			RFRM			RWRA			RWRB			RFIN			LASI			RASI			LPSI			RPSI			LTHI			LKNE			LTIB			LANK			LHEE			LTOE			RTHI			RKNE			RTIB			RANK			RHEE			RTOE			*39			*40			*41			*42			*43			*44		
		X1	Y1	Z1	X2	Y2	Z2	X3	Y3	Z3	X4	Y4	Z4	X5	Y5	Z5	X6	Y6	Z6	X7	Y7	Z7	X8	Y8	Z8	X9	Y9	Z9	X10	Y10	Z10	X11	Y11	Z11	X12	Y12	Z12	X13	Y13	Z13	X14	Y14	Z14	X15	Y15	Z15	X16	Y16	Z16	X17	Y17	Z17	X18	Y18	Z18	X19	Y19	Z19	X20	Y20	Z20	X21	Y21	Z21	X22	Y22	Z22	X23	Y23	Z23	X24	Y24	Z24	X25	Y25	Z25	X26	Y26	Z26	X27	Y27	Z27	X28	Y28	Z28	X29	Y29	Z29	X30	Y30	Z30	X31	Y31	Z31	X32	Y32	Z32	X33	Y33	Z33	X34	Y34	Z34	X35	Y35	Z35	X36	Y36	Z36	X37	Y37	Z37	X38	Y38	Z38	X39	Y39	Z39	X40	Y40	Z40	X41	Y41	Z41	X42	Y42	Z42	X43	Y43	Z43	X44	Y44	Z44	X45	Y45	Z45
																																																																																																																																								
199	1.98	826.65399	1644.59375	885.10736	843.21582	1639.31299	1016.77106	695.31537	1587.20459	904.29504	713.55566	1587.26575	1032.41687	706.64862	1430.35461	964.83209	694.2179	1099.1394	986.94556	820.99469	1360.56287	960.40375	871.80206	1188.70679	964.54529	645.42151	1261.81091	1054.78223	749.0863	1379.474	801.18634	700.09058	1182.33362	745.51276	665.74762	1075.39648	742.92761	645.71222	926.71851	718.47327	686.49603	798.79742	741.13196	618.26105	810.17615	725.83752	634.95074	721.87311	714.13867	781.35742	1399.77429	1123.46582	754.75964	1205.88513	1224.58606	779.29901	1087.32349	1240.52332	841.67725	986.56561	1244.47046	950.37396	896.2403	1186.07263	911.02087	870.18585	1233.70679	977.51373	820.30457	1219.98145	887.74646	956.0072	880.54218	876.52612	953.29327	1098.69202	726.59827	973.34021	898.87024	724.51794	971.99237	1067.21655	880.21375	645.15735	809.81165	924.22076	489.56973	836.49756	930.9646	231.74979	844.05493	954.17889	62.61715	887.01636	923.46136	45.72389	939.83734	1098.77466	42.04506	876.90991	792.8385	614.63464	1154.63037	779.35681	487.17972	1143.09094	593.46906	291.84381	1143.63806	459.9259	159.88637	1105.86072	417.28137	167.37985	1060.91968	546.67346	32.26433	1097.13745	733.73676	1683.26575	955.45013	NaN	NaN	NaN	NaN	NaN	NaN	NaN	NaN	NaN	NaN	NaN	NaN	NaN	NaN	NaN
200	1.99	835.43237	1645.38098	882.22882	852.4389	1640.29688	1013.86475	704.31677	1587.7832	901.7865	722.8833	1588.25342	1030.12866	716.08759	1430.87524	962.04938	704.77893	1100.14001	984.86481	830.54041	1361.62354	958.02502	882.22864	1190.0929	962.10022	655.83221	1262.22327	1052.63928	758.57166	1380.65552	798.98938	711.54559	1183.30359	742.87244	678.36084	1076.05151	739.83051	660.0719	927.15271	715.38055	702.03113	799.65723	738.87268	633.98431	810.25708	722.30499	651.81537	722.0246	711.36163	790.84735	1401.04883	1120.88757	764.44324	1207.1001	1221.46484	788.91235	1088.20544	1236.95325	849.89966	986.32587	1241.62341	957.08331	893.52692	1184.19385	917.17426	868.50232	1231.81177	982.62817	817.19006	1218.56384	898.10248	957.68207	877.75275	887.47211	954.2561	1095.776	737.06354	974.57153	897.02393	735.72156	972.44092	1065.22742	890.74384	646.552	808.15442	932.52875	490.20508	834.92841	935.8078	231.94981	843.1192	955.59052	62.57588	886.80231	924.09674	46.28168	939.33435	1099.75562	39.97262	877.55695	808.25525	614.48682	1153.8927	797.2912	486.81085	1143.4718	608.4256	296.47885	1142.7699	471.52664	167.68095	1104.98218	430.12119	177.53653	1059.69043	549.41992	34.13244	1096.84778	742.7403	1684.078	952.72211	NaN	NaN	NaN	NaN	NaN	NaN	NaN	NaN	NaN	NaN	NaN	NaN	NaN	NaN	NaN
201	2	844.15332	1645.95105	879.27972	861.60101	1641.2594	1010.94415	713.07538	1588.43372	899.59003	732.01978	1589.26379	1027.65552	725.31958	1431.22876	960.17279	714.98468	1100.87634	982.78271	840.08704	1362.59985	955.66235	892.56036	1191.33191	959.71686	666.27631	1262.51172	1051.22607	767.95184	1381.80542	796.83698	722.80133	1184.26501	740.03461	690.99829	1076.66626	736.76447	674.67969	927.59955	711.93536	718.1236	800.56158	736.45111	650.41217	810.38605	718.28711	669.35364	722.0564	708.5094	800.37189	1402.10913	1118.34082	774.08057	1208.16223	1218.54688	798.24677	1089.02039	1233.56177	857.98334	986.07916	1238.80237	963.75934	890.87457	1182.39661	923.12952	866.81403	1230.08228	987.57495	814.09253	1217.14771	908.23944	959.0686	874.80756	898.02234	955.11182	1092.83936	747.24847	975.78186	895.31006	746.44336	972.80426	1063.21204	900.47546	647.54382	806.44202	940.13965	490.54379	833.37866	940.29846	231.99057	842.41553	956.64459	62.55476	886.95984	924.09387	46.80534	938.66827	1100.77319	38.98668	878.80585	823.55621	614.41534	1153.33984	815.31238	486.42816	1143.79163	621.36426	303.02463	1141.84167	483.80161	175.98412	1104.35803	443.77307	187.97316	1058.68469	553.60028	37.21748	1096.60388	751.63831	1684.88782	950.15308	NaN	NaN	NaN	NaN	NaN	NaN	NaN	NaN	NaN	NaN	NaN	NaN	NaN	NaN	NaN
202	2.01	852.7417	1646.54578	876.37354	870.75269	1642.27417	1007.95288	721.80475	1588.948	897.34918	741.23145	1590.11829	1025.43677	734.64679	1431.91638	958.01648	725.06171	1101.62891	980.62476	849.74811	1363.56348	953.32507	902.63843	1192.35742	957.38275	675.79919	1263.54968	1049.17078	777.57587	1382.99622	794.63324	734.12811	1184.99805	737.43481	703.53271	1077.09265	733.67236	689.80609	927.61066	708.76001	734.76929	801.48419	733.76807	667.01007	810.08655	714.9433	687.32825	721.98669	705.38251	810.06384	1403.12097	1115.88708	784.15747	1209.18591	1216.11243	807.45758	1089.71985	1230.42053	865.85809	985.6994	1236.27869	970.34662	888.24078	1180.7334	928.92554	865.07745	1228.11157	992.61829	811.09747	1215.88892	918.0061	960.14655	872.05585	908.21741	955.76904	1089.9989	757.38239	976.55255	893.22412	756.76074	973.0578	1061.1925	909.03754	648.01605	804.76733	947.11743	490.49783	832.00073	944.25848	231.92661	841.99939	957.6297	62.76133	887.26587	924.58136	47.05189	938.75623	1102.14172	38.14804	880.25018	838.37305	614.1864	1152.37805	833.19019	486.17871	1144.06323	637.91321	307.29532	1141.54456	497.56143	184.27161	1103.70581	458.24542	198.57385	1057.9552	558.711	40.82656	1096.4541	760.48389	1685.59741	947.49176	NaN	NaN	NaN	NaN	NaN	NaN	NaN	NaN	NaN	NaN	NaN	NaN	NaN	NaN	NaN
